<svg xmlns="http://www.w3.org/2000/svg" viewBox="0 0 162.83 226.17">
    <defs>
        <style>.cls-1,.cls-2,.cls-3{fill:none;stroke:#ff4800;}.cls-1,.cls-2{stroke-miterlimit:10;}.cls-2,.cls-5{opacity:0.2;}.cls-3{stroke-linejoin:round;}.cls-4,.cls-5{fill:#ff4800;}</style>
    </defs>
    <title>bot</title>
    <g id="Слой_2" data-name="Слой 2">
        <g id="Слой_3" data-name="Слой 3">
            <path class="cls-1" d="M119.94,73.65a67.1,67.1,0,0,0,.6-8.95,52.53,52.53,0,0,0-105.06,0A71.15,71.15,0,0,0,15.87,72" />
            <path class="cls-2" d="M15.87,72c9.39,13.94,31,18.66,54.16,18.66,22.28,0,40.1-4,49.92-17" />
            <path class="cls-1" d="M109.77,86.32c6.6,1.73,10.91,3.87,12,6.21" />
            <path class="cls-1" d="M14.29,92.54c1-2.31,5.24-4.43,11.68-6.14" />
            <path class="cls-3" d="M122.48,100.25q-.23-3.53-.57-7c-1.49,6.1-25.05,11-53.9,11s-52.4-4.85-53.9-11q-.34,3.5-.57,7.08" />
            <path class="cls-1" d="M30.58,196c9.81,18.43,23,29.7,37.43,29.7s27.37-11.06,37.15-29.18" />
            <path class="cls-1" d="M120.06,72.41C118.63,78.51,95.61,83,68,83S17.39,77.55,16,71.45" />
            <path class="cls-2" d="M108.37,55.28C104.33,67.7,80.08,71,68,71S31.69,67.7,27.65,55.28C23.18,41.54,44.07,18.43,68,18.43S112.83,41.54,108.37,55.28Z" />
            <path class="cls-4" d="M63.45,51.14c-1.92,4-11,4.91-15.94.68-2.5-2.14-5.07-6.58-3.27-10.15,1.72-3.42,6.44-4.1,9.43-3.59C60.21,39.16,65.41,47.08,63.45,51.14Z" />
            <path class="cls-4" d="M73.14,51.14c1.92,4,11,4.91,15.94.68,2.5-2.14,5.07-6.58,3.27-10.15-1.72-3.42-6.44-4.1-9.43-3.59C76.38,39.16,71.17,47.08,73.14,51.14Z" />
            <path class="cls-1" d="M17.89,110c0-14.46-18.31-7.71-17.35,11.57C1.6,142.75,7,170.86,18.63,191.12c6,10.45,12.42,5.51,10.82-1.12C22.71,162.05,17.89,138,17.89,110Z" />
            <path class="cls-1" d="M117.38,110c0-14.46,18.31-7.71,17.35,11.57-1.06,21.18-6.44,49.29-18.09,69.56-6,10.45-12.42,5.51-10.82-1.12C112.56,162.05,117.38,138,117.38,110Z" />
            <circle class="cls-5" cx="32.62" cy="125.07" r="4.5" />
            <circle class="cls-5" cx="47.44" cy="127.46" r="3.83" />
            <circle class="cls-5" cx="61.86" cy="128.41" r="3.17" />
            <path class="cls-3" d="M158.95.5H128.41A3.39,3.39,0,0,0,125,3.88v17.3a3.39,3.39,0,0,0,3.38,3.38H134a4.34,4.34,0,0,1,0,.47c-.37,2.56-3,4-3.55,4.3a7.55,7.55,0,0,0,2.37-.45,8.66,8.66,0,0,0,4.58-4.31h21.59a3.39,3.39,0,0,0,3.38-3.38V3.88A3.39,3.39,0,0,0,158.95.5Z" />
            <line class="cls-3" x1="129.08" y1="5.92" x2="151.5" y2="5.92" />
            <line class="cls-3" x1="129.08" y1="9.83" x2="146.08" y2="9.83" />
            <line class="cls-3" x1="129.08" y1="13.74" x2="150.3" y2="13.74" />
            <line class="cls-3" x1="129.08" y1="17.65" x2="158.27" y2="17.65" />
        </g>
    </g>
</svg>