<svg xmlns="http://www.w3.org/2000/svg" viewBox="0 0 272 37.33"><defs><style>.cls-1{fill:#ff4800;}.cls-2{fill:#fff;}</style></defs><title>Ресурс 2</title><g id="Слой_2" data-name="Слой 2"><g id="Слой_3" data-name="Слой 3"><path class="cls-1" d="M133.33,0V37.33H32V0ZM64,5.33H58.67V26.67H53.33V21.33H48v5.33H42.67V5.33H37.33V26.67h5.33V32H48V26.67h5.33V32h5.33V26.67H64Zm32,0H90.67V26.67H85.33V21.33H80v5.33H74.67V5.33H69.33V26.67h5.33V32H80V26.67h5.33V32h5.33V26.67H96Zm32,0h-5.33V26.67h-5.33V21.33H112v5.33h-5.33V5.33h-5.33V26.67h5.33V32H112V26.67h5.33V32h5.33V26.67H128Z"/><path class="cls-2" d="M21.33,5.33H0V32H5.33V26.67h16V32h5.33V5.33Zm0,16h-16V10.67h16Z"/><polygon class="cls-2" points="160 5.33 144 5.33 138.67 5.33 138.67 26.67 138.67 32 160 32 160 26.67 144 26.67 144 21.33 160 21.33 160 16 144 16 144 10.67 160 10.67 160 5.33"/><polygon class="cls-2" points="186.67 5.33 170.67 5.33 165.33 5.33 165.33 16 165.33 21.33 181.33 21.33 181.33 26.67 165.33 26.67 165.33 32 186.67 32 186.67 26.67 186.67 16 181.33 16 170.67 16 170.67 10.67 186.67 10.67 186.67 5.33"/><path class="cls-2" d="M208,5.33H192V32h21.33V5.33Zm0,21.33H197.33v-16H208Z"/><polygon class="cls-2" points="245.33 5.33 240 5.33 240 10.67 234.67 10.67 234.67 16 229.33 16 229.33 10.67 224 10.67 224 5.33 218.67 5.33 218.67 32 224 32 224 16 229.33 16 229.33 21.33 234.67 21.33 234.67 16 240 16 240 32 245.33 32 245.33 5.33"/><polygon class="cls-2" points="272 5.33 256 5.33 250.67 5.33 250.67 26.67 250.67 32 272 32 272 26.67 256 26.67 256 21.33 272 21.33 272 16 256 16 256 10.67 272 10.67 272 5.33"/></g></g></svg>