<svg xmlns="http://www.w3.org/2000/svg" viewBox="0 0 215 215"><defs><style>.cls-1{fill:none;stroke:#ff4800;stroke-miterlimit:10;stroke-width:2px;}.cls-2{fill:#ff4800;opacity:0.2;}</style></defs><title>fronend</title><g id="Слой_2" data-name="Слой 2"><g id="Слой_2-2" data-name="Слой 2"><polyline class="cls-1" points="1 1 214 1 214 214 1 214 1 0"/><path class="cls-1" d="M206.2,12.5A4.5,4.5,0,1,1,201.7,8a4.5,4.5,0,0,1,4.5,4.5"/><path class="cls-1" d="M193,12.5A4.5,4.5,0,1,1,188.5,8a4.5,4.5,0,0,1,4.5,4.5"/><path class="cls-1" d="M214,24H110L100,6H1"/><path class="cls-1" d="M209,48H7V30H208V48"/><line class="cls-1" x1="1" y1="54" x2="214" y2="54"/><path class="cls-1" d="M6,60H127V180H7V60"/><path class="cls-1" d="M209,159H133V60h75v99"/><path class="cls-1" d="M133,208V165h75v43"/><path class="cls-1" d="M7,208V186H127v22"/><rect class="cls-2" x="15" y="68" width="104" height="13"/><rect class="cls-2" x="15" y="194.15" width="104" height="13.85"/><rect class="cls-2" x="15" y="89" width="104" height="4"/><rect class="cls-2" x="15" y="97" width="96" height="4"/><rect class="cls-2" x="15" y="108" width="104" height="4"/><rect class="cls-2" x="15" y="116" width="104" height="4"/><rect class="cls-2" x="15" y="124" width="104" height="4"/><rect class="cls-2" x="15" y="135" width="100" height="4"/><rect class="cls-2" x="15" y="143" width="104" height="4"/><rect class="cls-2" x="15" y="151" width="104" height="4"/><rect class="cls-2" x="15" y="159" width="104" height="4"/><rect class="cls-2" x="15" y="167" width="104" height="4"/><rect class="cls-2" x="139" y="66" width="63" height="12"/><rect class="cls-2" x="147" y="84" width="42.58" height="4"/><rect class="cls-2" x="147" y="94" width="54.11" height="4"/><rect class="cls-2" x="147" y="104" width="43.47" height="4"/><rect class="cls-2" x="147" y="114" width="32.82" height="4"/><rect class="cls-2" x="147" y="124" width="55" height="4"/><rect class="cls-2" x="147" y="134" width="48.79" height="4"/><rect class="cls-2" x="147" y="144" width="55" height="4"/><rect class="cls-2" x="147" y="176" width="55" height="4"/><rect class="cls-2" x="139" y="84" width="4" height="4"/><rect class="cls-2" x="139" y="94" width="4" height="4"/><rect class="cls-2" x="139" y="104" width="4" height="4"/><rect class="cls-2" x="139" y="114" width="4" height="4"/><rect class="cls-2" x="139" y="124" width="4" height="4"/><rect class="cls-2" x="139" y="134" width="4" height="4"/><rect class="cls-2" x="139" y="144" width="4" height="4"/><rect class="cls-2" x="140" y="171" width="62" height="37"/></g></g></svg>